<svg xmlns="http://www.w3.org/2000/svg" xmlns:xlink="http://www.w3.org/1999/xlink" fill="none" version="1.1" width="55.133056640625" height="55.58001708984375" viewBox="0 0 55.133056640625 55.58001708984375"><defs><radialGradient cx="0" cy="0" r="1" gradientUnits="userSpaceOnUse" id="master_svg0_4417_38174" gradientTransform="translate(27.56650733947754 27.79265127794224) rotate(0) scale(27.56650733947754 27.342204878336222)"><stop offset="0%" stop-color="#D9372D" stop-opacity="1"/><stop offset="40.99999964237213%" stop-color="#D9372D" stop-opacity="1"/><stop offset="100%" stop-color="#EFE02A" stop-opacity="1"/></radialGradient></defs><g style="opacity:0.8999999761581421;"><g><path d="M30.3684,55.58L27.0655,55.58L24.0566,55.5008C24.6514,51.7103,25.2331,48.1574,25.8227,44.4065L28.967,44.4065C29.4324,48.1179,29.9004,51.8528,30.3684,55.58ZM26.0717,11.2581C25.6027,7.51774,25.1311,3.75358,24.6594,0L30.9821,0.163773C30.3873,3.95434,29.8056,7.50717,29.2161,11.2581L26.0717,11.2581ZM5.96362,10.1884L14.6681,16.9902L16.9897,14.7238Q13.8166,10.3178,10.5543,5.7876L5.96362,10.1884ZM17.7654,7.71068C18.5855,9.322,19.3768,10.8805,20.1734,12.4443C20.2099,12.5055,20.2511,12.5638,20.2966,12.6186L23.7029,11.3877C23.2784,9.62049,22.8487,7.82427,22.3928,5.96729L17.7654,7.71068ZM38.2191,14.9457C38.9633,15.7381,39.6969,16.5068,40.4385,17.286L49.3788,10.7351L45.0187,6.10718L38.2191,14.9457ZM33.0599,11.9053L36.3221,13.5139C37.2811,11.929,38.2375,10.3441,39.228,8.71695L34.729,6.65393L33.0599,11.9053ZM24.1901,40.7876L25.8094,40.7876C31.4718,40.8035,36.8459,36.9337,38.1089,31.0352C38.929,27.205,38.122,23.7156,35.6118,20.6778C33.7479,18.3907,31.0783,16.9197,28.1624,16.5729C24.9332,16.0904,21.6511,16.9928,19.112,19.0612C15.9126,21.5918,14.3117,24.9676,14.102,29.0382C14.102,29.0884,14.0863,29.1359,14.0549,29.3024C13.6905,27.6736,13.6905,25.9835,14.0549,24.3548C15.255,19.1061,18.4831,15.6827,23.5612,14.2114C28.1519,12.8907,32.4124,13.8574,36.1385,16.8899C38.864,19.066,40.6481,22.2211,41.117,25.694C42.0865,32.2529,38.5177,38.3733,32.5985,40.6556C30.0487,41.6736,27.2326,41.7937,24.6067,40.9963C24.4573,40.954,24.3158,40.8959,24.1691,40.8431C24.1691,40.8246,24.1822,40.8035,24.1874,40.7823L24.1901,40.7876ZM6.5061,20.5562L11.896,22.3023C12.4017,21.1928,12.8943,20.1151,13.4,19.003L8.54729,16.0208L6.5061,20.5562ZM43.6089,24.0298L42.4639,20.5958L47.4764,17.9966C48.0581,19.5656,48.6267,21.0977,49.2058,22.6641L43.6089,24.0298ZM0,30.705L11.1676,29.2786L11.1676,26.1087C7.44941,25.5144,3.92515,24.9306,0.162457,24.3284L0,30.705ZM43.9655,26.3754L55.133,24.9517L54.9706,31.3256C51.2079,30.726,47.6862,30.1396,43.9655,29.5452L43.9655,26.3754ZM5.82227,33.0005L7.5595,37.6654L12.8,34.9473L11.5633,31.5952L5.82227,33.0005ZM41.3583,36.4927L46.473,39.6413L48.5299,35.1111L42.9409,33.2991L41.3688,36.4927L41.3583,36.4927ZM5.64929,44.9293L10.012,49.5572L17.0291,40.4334L14.8726,38.1749L5.64929,44.9293ZM37.8208,40.6423L44.4763,49.8876L49.0643,45.4868L39.8934,38.3098L37.8313,40.6528L37.8208,40.6423ZM20.2966,49.0133L15.7976,46.9503L18.976,41.7042L22.1491,43.202C21.5438,45.1091,20.9307,47.0269,20.2966,49.0133ZM31.1995,43.6985L32.6406,49.7026L37.268,47.9513L34.5062,42.5336L31.1995,43.6985Z" fill-rule="evenodd" fill="url(#master_svg0_4417_38174)" fill-opacity="1"/></g><g><path d="M24.1900162109375,40.78757216796875L25.8094162109375,40.78757216796875C31.4718162109375,40.803372167968746,36.8459162109375,36.93357216796875,38.1089162109375,31.03507216796875C38.929016210937505,27.204972167968748,38.1220162109375,23.71547216796875,35.611816210937505,20.67776216796875C33.747916210937504,18.390682167968748,31.0783162109375,16.91962216796875,28.1624162109375,16.57285216796875C24.933216210937502,16.09035216796875,21.6510762109375,16.99273216796875,19.111986210937502,19.06115216796875C15.912646210937499,21.59172216796875,14.3116632109375,24.96757216796875,14.1020422109375,29.03817216796875C14.1020422109375,29.08837216796875,14.0863202109375,29.13587216796875,14.0548772109375,29.302272167968752C13.6905291109375,27.67357216796875,13.6905291109375,25.98347216796875,14.0548772109375,24.35477216796875C15.2549562109375,19.10606216796875,18.4831262109375,15.68266216796875,23.5611962109375,14.21134616796875C28.1519162109375,12.89059116796875,32.4124162109375,13.85738316796875,36.1384162109375,16.88983216796875C38.863916210937504,19.06590216796875,40.6481162109375,22.22106216796875,41.116916210937504,25.693972167968752C42.0864162109375,32.25287216796875,38.517616210937504,38.37327216796875,32.598516210937504,40.65547216796875C30.0487162109375,41.673472167968754,27.2326162109375,41.79357216796875,24.6067162109375,40.996272167968755C24.4573162109375,40.95397216796875,24.3158162109375,40.89587216796875,24.1691162109375,40.84307216796875C24.1691162109375,40.82457216796875,24.1822162109375,40.80347216796875,24.1874162109375,40.78227216796875" fill="#DD5424" fill-opacity="1"/></g><g><path d="M20.53756015625,24.4973359765625L25.48462015625,24.0324259765625L22.59709015625,32.950125976562504L24.50202015625,32.950125976562504C29.50676015625,33.3041259765625,31.710360156249997,31.2041259765625,32.54356015625,27.931295976562502C33.52616015625,24.0482759765625,32.04056015625,21.1082759765625,29.45956015625,18.6041259765625Q36.238160156250004,21.6735559765625,36.14646015625,27.5852559765625C36.14646015625,27.6090259765625,36.26696015625,30.958425976562502,34.62936015625,33.1826259765625C32.58556015625,35.9615259765625,29.20806015625,37.6732259765625,25.93792015625,37.6732259765625L19.10428015625,37.6732259765625C17.62493215625,37.678325976562505,16.58526615625,36.207025976562505,17.07357115625,34.7992259765625L20.53756015625,24.4973359765625Z" fill="#DD5424" fill-opacity="1"/></g><g><path d="M31.3907876953125,26.040115214843752Q31.9435876953125,20.55897521484375,27.318887695312497,19.24086521484375C23.4251476953125,18.13407421484375,18.8658876953125,20.40841521484375,16.4473876953125,26.87482521484375Q19.2091476953125,22.57180521484375,25.141417695312498,22.521625214843752Q30.3059876953125,22.48199521484375,31.3907876953125,26.05067521484375" fill="#DD5424" fill-opacity="1"/></g></g></svg>